# Blender 4.2.3 LTS
# www.blender.org
mtllib pawn.mtl
o Cube
v 2.375998 -2.375998 12.151326
v 6.463348 -6.463348 -0.775369
v -2.375998 -2.375998 12.151326
v -6.463348 -6.463348 -0.775369
v 2.375998 2.375998 12.151326
v 6.463348 6.463348 -0.775369
v -2.375998 2.375998 12.151326
v -6.463348 6.463348 -0.775369
v -2.375998 -2.375998 21.844458
v -2.375998 2.375998 21.844458
v 2.375998 -2.375998 21.844458
v 2.375998 2.375998 21.844458
v 3.999340 3.999340 17.777046
v 3.999340 -3.999340 17.777046
v -3.999340 -3.999340 17.777046
v -3.999340 3.999340 17.777046
v 8.147956 0.000000 -0.775369
v -2.995278 0.000000 12.151326
v -8.147956 0.000000 -0.775369
v 2.995278 0.000000 12.151326
v -2.995278 0.000000 21.844458
v 2.995278 0.000000 21.844458
v -5.041728 0.000000 17.777046
v 5.041728 0.000000 17.777046
v 0.000000 8.147956 -0.775369
v 0.000000 -2.995278 12.151326
v 0.000000 2.995278 12.151326
v 0.000000 -8.147956 -0.775369
v 0.000000 -2.995278 21.844458
v 0.000000 2.995278 21.844458
v 0.000000 -5.041728 17.777046
v 0.000000 5.041728 17.777046
v 0.000000 0.000000 22.753466
v 0.000000 0.000000 -0.775369
vn 0.8700 0.2268 0.4377
vn -0.9028 0.2353 0.3599
vn 0.2353 0.9028 0.3599
vn -0.0000 -0.0000 -1.0000
vn -0.2353 -0.9028 0.3599
vn 0.9028 -0.2353 0.3599
vn -0.1847 0.1847 0.9653
vn -0.8700 -0.2268 0.4377
vn -0.2268 0.8700 0.4377
vn 0.2268 -0.8700 0.4377
vn 0.2379 -0.9128 -0.3320
vn -0.2379 0.9128 -0.3320
vn -0.9128 -0.2379 -0.3320
vn 0.9128 0.2379 -0.3320
vn 0.9128 -0.2379 -0.3320
vn -0.9128 0.2379 -0.3320
vn -0.8700 0.2268 0.4377
vn -0.1847 -0.1847 0.9653
vn 0.9028 0.2353 0.3599
vn -0.9028 -0.2353 0.3599
vn 0.8700 -0.2268 0.4377
vn 0.1847 -0.1847 0.9653
vn 0.2379 0.9128 -0.3320
vn -0.2379 -0.9128 -0.3320
vn -0.2268 -0.8700 0.4377
vn 0.2268 0.8700 0.4377
vn 0.1847 0.1847 0.9653
vn 0.2353 -0.9028 0.3599
vn -0.2353 0.9028 0.3599
vt 0.625000 0.375000
vt 0.625000 0.250000
vt 0.375000 0.875000
vt 0.625000 0.875000
vt 0.625000 1.000000
vt 0.375000 1.000000
vt 0.375000 0.125000
vt 0.625000 0.125000
vt 0.375000 0.250000
vt 0.250000 0.625000
vt 0.375000 0.625000
vt 0.375000 0.750000
vt 0.250000 0.750000
vt 0.625000 0.625000
vt 0.625000 0.750000
vt 0.375000 0.375000
vt 0.625000 0.500000
vt 0.375000 0.500000
vt 0.750000 0.625000
vt 0.875000 0.625000
vt 0.875000 0.750000
vt 0.750000 0.750000
vt 0.625000 0.000000
vt 0.125000 0.625000
vt 0.125000 0.750000
vt 0.125000 0.500000
vt 0.250000 0.500000
vt 0.750000 0.500000
vt 0.875000 0.500000
vt 0.375000 0.000000
s 0
usemtl Material
f 24/1/1 13/2/1 12/2/1 22/1/1
f 19/3/2 18/4/2 7/5/2 8/6/2
f 25/7/3 27/8/3 5/2/3 6/9/3
f 34/10/4 28/11/4 4/12/4 19/13/4
f 28/11/5 26/14/5 3/15/5 4/12/5
f 17/16/6 20/1/6 1/17/6 2/18/6
f 33/19/7 30/20/7 10/21/7 21/22/7
f 23/4/8 15/15/8 9/15/8 21/4/8
f 32/8/9 16/23/9 10/23/9 30/8/9
f 31/14/10 14/17/10 11/17/10 29/14/10
f 26/14/11 1/17/11 14/17/11 31/14/11
f 27/8/12 7/23/12 16/23/12 32/8/12
f 18/4/13 3/15/13 15/15/13 23/4/13
f 20/1/14 5/2/14 13/2/14 24/1/14
f 1/17/15 20/1/15 24/1/15 14/17/15
f 7/5/16 18/4/16 23/4/16 16/5/16
f 16/5/17 23/4/17 21/4/17 10/5/17
f 29/14/18 33/19/18 21/22/18 9/15/18
f 6/9/19 5/2/19 20/1/19 17/16/19
f 25/24/4 34/10/4 19/13/4 8/25/4
f 4/12/20 3/15/20 18/4/20 19/3/20
f 14/17/21 24/1/21 22/1/21 11/17/21
f 6/26/4 17/27/4 34/10/4 25/24/4
f 11/17/22 22/28/22 33/19/22 29/14/22
f 5/2/23 27/8/23 32/8/23 13/2/23
f 3/15/24 26/14/24 31/14/24 15/15/24
f 15/15/25 31/14/25 29/14/25 9/15/25
f 13/2/26 32/8/26 30/8/26 12/2/26
f 22/28/27 12/29/27 30/20/27 33/19/27
f 2/18/28 1/17/28 26/14/28 28/11/28
f 17/27/4 2/18/4 28/11/4 34/10/4
f 8/30/29 7/23/29 27/8/29 25/7/29
